<svg width="36" height="36" viewBox="0 0 36 36" fill="none" xmlns="http://www.w3.org/2000/svg">
<circle cx="18" cy="18" r="18" fill="white"/>
<path d="M14.002 26V22.826H18.027C19.0083 22.826 19.867 22.6343 20.603 22.251C21.339 21.8523 21.9063 21.2773 22.305 20.526C22.7037 19.7747 22.903 18.8853 22.903 17.858C22.903 16.8307 22.696 15.949 22.282 15.213C21.8833 14.477 21.316 13.9097 20.58 13.511C19.8593 13.1123 19.0083 12.913 18.027 12.913H13.887V9.762H18.073C19.2997 9.762 20.4267 9.96133 21.454 10.36C22.4967 10.7433 23.4013 11.303 24.168 12.039C24.95 12.7597 25.548 13.6183 25.962 14.615C26.3913 15.5963 26.606 16.685 26.606 17.881C26.606 19.0617 26.3913 20.1503 25.962 21.147C25.548 22.1437 24.9577 23.0023 24.191 23.723C23.4243 24.4437 22.5197 25.0033 21.477 25.402C20.4497 25.8007 19.3303 26 18.119 26H14.002ZM11.564 26V9.762H15.175V26H11.564Z" fill="black"/>
</svg>
